<svg width="1200" height="600" viewBox="0 0 1200 600" xmlns="http://www.w3.org/2000/svg" fill="none">
  <defs>
    <linearGradient id="g" x1="0" y1="0" x2="1" y2="1">
      <stop stop-color="#0bb3a9" stop-opacity="0.25" />
      <stop offset="1" stop-color="#0b2545" stop-opacity="0.2" />
    </linearGradient>
  </defs>
  <rect width="1200" height="600" rx="40" fill="url(#g)" />
  <g stroke="#ffffff" stroke-opacity="0.35">
    <path d="M0 80h1200M0 160h1200M0 240h1200M0 320h1200M0 400h1200M0 480h1200" />
    <path d="M120 0v600M240 0v600M360 0v600M480 0v600M600 0v600M720 0v600M840 0v600M960 0v600M1080 0v600" />
  </g>
  <circle cx="1040" cy="120" r="90" fill="#b8e6dd" fill-opacity="0.35" />
  <circle cx="120" cy="420" r="110" fill="#0bb3a9" fill-opacity="0.25" />
</svg>
